# xmcd
# 
# Track frame offsets:
#   150
#   25962
#   49485
#   67232
#   83185
#   101207
#   121195
#   135085
#   153562
#   173272
# 
# Disc length: 2497 seconds
# 
# Revision: 1
# Processed by: cddbd v1.5.1PL2 Copyright (c) Steve Scherf et al.
# Submitted via: VOLTOCDX V1.0.24 
# 
DISCID=8009bf0a
DTITLE=Bobby Dirninger - Du Coté de Chez Laurent
DYEAR=2005
DGENRE=blues
TTITLE0=I'm In Love With You
TTITLE1=Meet Me In The Morning
TTITLE2=Gettin Back On Time
TTITLE3=Blues Had A Baby
TTITLE4=After Midnight
TTITLE5=Baby Please Don't Go
TTITLE6=Change Of Season
TTITLE7=Jimmy reed's
TTITLE8=Night Time Is The Right Time
TTITLE9=Chump Man Blues
EXTD=
EXTT0=
EXTT1=
EXTT2=
EXTT3=
EXTT4=
EXTT5=
EXTT6=
EXTT7=
EXTT8=
EXTT9=
PLAYORDER=
